<?xml version="1.0" encoding="UTF-8"?>
<svg version="1.1" xmlns="http://www.w3.org/2000/svg" width="1024" height="1024">
<path d="M0 0 C337.92 0 675.84 0 1024 0 C1024 337.92 1024 675.84 1024 1024 C686.08 1024 348.16 1024 0 1024 C0 686.08 0 348.16 0 0 Z " fill="#F2EFE1" transform="translate(0,0)"/>
<path d="M0 0 C2.60197672 -0.00217254 5.20351856 -0.02034701 7.80541992 -0.03930664 C19.02373705 -0.07745672 29.95856985 0.63899937 41.0690918 2.18530273 C42.65016724 2.40440308 42.65016724 2.40440308 44.26318359 2.62792969 C62.23816031 5.32393929 86.47657652 9.61279584 98.0690918 25.18530273 C103.08008948 34.088635 103.36332538 42.77518398 103.47412109 52.79492188 C103.4956926 54.2583782 103.52978708 55.72170577 103.57666016 57.18457031 C104.04215593 71.88661658 104.04215593 71.88661658 98.56762695 77.76635742 C98.07311035 78.23460937 97.57859375 78.70286133 97.0690918 79.18530273 C96.3884668 79.98967773 95.7078418 80.79405273 95.0065918 81.62280273 C92.71278361 83.47264805 90.96919017 83.86306958 88.0690918 84.18530273 C88.26000938 89.49427852 88.26000938 89.49427852 90.5690918 93.99780273 C91.0640918 94.38967773 91.5590918 94.78155273 92.0690918 95.18530273 C93.40279221 99.18640396 93.29244654 102.87033676 93.3190918 107.06030273 C93.3500293 108.26493164 93.3500293 108.26493164 93.3815918 109.49389648 C93.41293543 114.25029276 93.10756058 117.29576407 90.0690918 121.18530273 C89.0690918 122.18530273 88.0690918 123.18530273 87.0690918 124.18530273 C87.0690918 124.84530273 87.0690918 125.50530273 87.0690918 126.18530273 C88.69759235 127.26598049 90.37456701 128.27391145 92.0690918 129.24780273 C101.1017909 134.86995952 106.42784129 140.8689214 109.0690918 151.18530273 C109.45334587 154.27931493 109.47984825 157.32336663 109.45677185 160.4384613 C109.46485016 161.76860885 109.46485016 161.76860885 109.47309166 163.12562805 C109.48730778 166.07331709 109.48028326 169.02055302 109.47314453 171.96826172 C109.47885139 174.09127155 109.48581688 176.21427832 109.49394226 178.33728027 C109.51185325 184.0872798 109.51070917 189.83712655 109.50499988 195.58714557 C109.50190521 200.39329054 109.50800355 205.19940629 109.51403862 210.00554711 C109.52807534 221.34617081 109.52652949 232.68671918 109.51513672 244.02734375 C109.50365478 255.71478517 109.51773454 267.40199715 109.54453319 279.08940834 C109.56670524 289.13638848 109.57332421 299.18329667 109.56745678 309.23029953 C109.56408982 315.22544702 109.56648519 321.22044742 109.58370781 327.21557426 C109.59919883 332.85375146 109.59519717 338.49158922 109.57640266 344.12975311 C109.57272287 346.19447071 109.57580738 348.25921358 109.58628845 350.32390785 C109.65138131 364.21086719 109.28038275 374.73142582 99.1784668 385.22045898 C92.15562406 391.76210694 84.03962227 394.05713212 74.98535156 396.63818359 C73.18289111 397.15281143 71.38740722 397.69169764 69.5925293 398.23217773 C65.67066249 399.29308184 61.75520751 400.04739646 57.7565918 400.74780273 C52.77130412 401.49781586 52.77130412 401.49781586 48.0690918 403.18530273 C44.7284283 403.50178664 41.38691569 403.69658798 38.0378418 403.90405273 C35.1426117 403.99818336 35.1426117 403.99818336 33.0690918 405.18530273 C4.51594544 409.01589946 -26.9647119 406.69112314 -54.9309082 400.18530273 C-55.99196777 399.94239502 -55.99196777 399.94239502 -57.07446289 399.69458008 C-72.02312994 396.18886193 -87.94087812 391.52134184 -96.9309082 378.18530273 C-100.97219833 371.53672865 -101.07979336 364.92050316 -101.07807922 357.36210632 C-101.08175591 356.48536611 -101.0854326 355.60862589 -101.0892207 354.7053178 C-101.10021509 351.77375404 -101.10409411 348.84222578 -101.10791016 345.91064453 C-101.11417786 343.80616138 -101.12082494 341.70167933 -101.12782288 339.59719849 C-101.14882382 332.6929806 -101.15921949 325.78876259 -101.16918945 318.88452148 C-101.17323807 316.50546571 -101.17735502 314.12641005 -101.18153954 311.74735451 C-101.2005801 300.57261261 -101.21481522 289.39787729 -101.2231515 278.2231223 C-101.23292914 265.33002947 -101.25926729 252.43710808 -101.2996524 239.54407567 C-101.32981294 229.57276981 -101.34462021 219.60151312 -101.34793252 209.63016254 C-101.35028244 203.67689926 -101.35923625 197.72381938 -101.38439369 191.77060509 C-101.40767909 186.17025461 -101.4119056 180.57020827 -101.40163231 174.96982193 C-101.40113701 172.91757635 -101.40745568 170.86531577 -101.42118835 168.81311607 C-101.43892514 166.00486476 -101.43179234 163.19770298 -101.4186554 160.38945007 C-101.42962464 159.58320448 -101.44059389 158.77695889 -101.45189553 157.94628161 C-101.34989262 148.8745618 -97.19652421 140.67205813 -90.9309082 134.18530273 C-87.0465757 131.00630938 -83.04588201 128.06178928 -78.9309082 125.18530273 C-79.5496582 124.42217773 -80.1684082 123.65905273 -80.8059082 122.87280273 C-85.1588864 117.36756561 -85.32470482 114.16625056 -85.3684082 107.37280273 C-85.41771484 106.03765625 -85.41771484 106.03765625 -85.46801758 104.67553711 C-85.50441736 100.21160026 -85.44395987 97.20794266 -82.4543457 93.73999023 C-81.62161133 92.89694336 -80.78887695 92.05389648 -79.9309082 91.18530273 C-78.84737074 88.1407865 -78.84737074 88.1407865 -79.9309082 85.18530273 C-81.82248181 83.68984689 -83.78875974 82.56288521 -85.89575195 81.39233398 C-90.730226 78.52505475 -93.49873271 73.50654225 -94.9309082 68.18530273 C-95.3730105 63.4098518 -95.34936825 58.66547991 -95.3059082 53.87280273 C-95.31750977 52.60500977 -95.32911133 51.3372168 -95.34106445 50.03100586 C-95.30765616 39.27910389 -94.08341547 29.93849858 -86.6105957 21.73608398 C-65.42007517 1.45068619 -27.50855946 -0.00255917 0 0 Z " fill="#343333" transform="translate(507.930908203125,308.814697265625)"/>
<path d="M0 0 C2.73180437 -0.0191419 5.46347335 -0.03314219 8.1953125 -0.04418945 C9.35027222 -0.05307568 9.35027222 -0.05307568 10.52856445 -0.06214142 C15.91163944 -0.07846743 20.80639445 0.32485359 26 1.8125 C26.79140381 2.02189209 27.58280762 2.23128418 28.39819336 2.44702148 C36.15819306 4.58644382 43.75781983 7.23524449 51.37716675 9.82138062 C71.3197113 16.58456254 89.80160261 20.39943468 110.82397461 21.875 C132.93375655 23.4845407 132.93375655 23.4845407 140 29 C140.6292057 31.95210457 140.6292057 31.95210457 140.63491821 35.64016724 C140.64271817 36.31833366 140.65051812 36.99650009 140.65855443 37.69521701 C140.67853738 39.97330403 140.66268714 42.24973193 140.64697266 44.52783203 C140.65374645 46.15898109 140.66264824 47.79012251 140.67352295 49.42124939 C140.69636237 53.85767481 140.68745819 58.29352029 140.67162752 62.72995615 C140.65897955 67.37425724 140.67070675 72.01850826 140.67855835 76.66281128 C140.68766359 84.46930862 140.67564983 92.27556976 140.65185547 100.08203125 C140.62469957 109.09515501 140.63341438 118.10771228 140.6609875 127.12082207 C140.68372102 134.8628342 140.68685623 142.60467629 140.67379415 150.34671104 C140.66601555 154.9687037 140.66491293 159.59043077 140.68147659 164.21240616 C140.69598188 168.56449493 140.68578984 172.915859 140.65700531 177.26786995 C140.65042422 178.86051165 140.65224096 180.45321491 140.66331863 182.04583168 C140.72472834 191.77622852 140.2105113 199.41519602 133.32280922 206.79767036 C126.19514137 213.66258593 116.81616644 215.79334316 107.375 217.5625 C106.26729248 217.77156982 105.15958496 217.98063965 104.01831055 218.19604492 C101.74562066 218.61600025 99.47143175 219.02792599 97.19580078 219.43164062 C95.24128196 219.77924336 93.28854938 220.13735475 91.33935547 220.51367188 C76.89824167 223.26762513 62.3988012 223.2861383 47.75 223.3125 C46.76939606 223.31617584 45.78879211 223.31985168 44.7784729 223.32363892 C-17.06842236 223.44451822 -17.06842236 223.44451822 -36.87890625 205.671875 C-43.9342456 196.7844862 -43.5846944 187.39944797 -43.54931641 176.56591797 C-43.55802104 174.80256287 -43.5683908 173.03921533 -43.58029175 171.27587891 C-43.60697541 166.50741294 -43.60824057 161.73926491 -43.60316515 156.97073889 C-43.60102028 152.98445481 -43.61080576 148.99823436 -43.62037599 145.01196396 C-43.64253054 135.60835036 -43.64345973 126.20489658 -43.63134766 116.80126953 C-43.61925386 107.10743953 -43.64393366 97.41418906 -43.68648779 87.72045791 C-43.72172454 79.38644049 -43.7337223 71.05260755 -43.72721231 62.71851838 C-43.72358877 57.74561476 -43.72883769 52.77312514 -43.75664139 47.80028915 C-43.78179939 43.1263443 -43.77791089 38.45330419 -43.75181961 33.77937317 C-43.74708993 32.06654173 -43.75255129 30.35364656 -43.76906586 28.64088821 C-43.89918375 14.09532716 -43.89918375 14.09532716 -40.20346069 9.55154419 C-37.12956934 6.67441526 -34.24722885 5 -30 5 C-29.99668985 5.9554518 -29.99337971 6.91090361 -29.98996925 7.89530849 C-29.90893144 31.15659392 -29.81660252 54.41781371 -29.71247292 77.67900753 C-29.66237707 88.92799969 -29.61593377 100.17698467 -29.578125 111.42602539 C-29.54515693 121.23206999 -29.50529907 131.0380584 -29.45720994 140.84404093 C-29.43199288 146.03495538 -29.41019743 151.22583279 -29.39665604 156.41679192 C-29.38379221 161.30624749 -29.3616913 166.19557572 -29.33261681 171.08496094 C-29.32357477 172.87594281 -29.31785871 174.66694518 -29.31578636 176.45794868 C-29.45241508 194.4999985 -29.45241508 194.4999985 -21 210 C-16.35190482 213.86985906 -10.94755884 215.21201842 -4.9362793 214.88916016 C-2.80282553 214.65868916 -0.68540279 214.37520572 1.4375 214.0625 C2.16904297 213.96259766 2.90058594 213.86269531 3.65429688 213.75976562 C5.43738769 213.51502767 7.21888442 213.25872147 9 213 C8.60167969 212.59910156 8.20335937 212.19820312 7.79296875 211.78515625 C6.99826172 210.93244141 6.99826172 210.93244141 6.1875 210.0625 C5.66542969 209.51722656 5.14335937 208.97195313 4.60546875 208.41015625 C0.54833735 202.31952347 -0.44546046 195.61409239 -0.36076355 188.43882751 C-0.36332682 187.62667788 -0.3658901 186.81452824 -0.36853105 185.977768 C-0.37343384 183.283066 -0.35703461 180.58893663 -0.34057617 177.89428711 C-0.33972914 175.95209771 -0.34020653 174.00990735 -0.34190369 172.06771851 C-0.34276209 166.81420189 -0.32516137 161.56089205 -0.30418181 156.30742335 C-0.28538919 150.81014866 -0.28366253 145.31286888 -0.28010559 139.81556702 C-0.27079273 129.41415158 -0.24618918 119.01283109 -0.21605712 108.61145741 C-0.18248952 96.76626374 -0.16602116 84.92106547 -0.15097082 73.07583606 C-0.11963898 48.71717147 -0.06689321 24.35859106 0 0 Z " fill="#AC2B2B" transform="translate(463,475)"/>
<path d="M0 0 C22.89101968 7.17669453 47.00527447 8.32305608 70.80200195 8.31225586 C71.77160858 8.31397797 72.74121521 8.31570007 73.74020386 8.31747437 C91.50575496 8.31389992 108.39411978 6.84410556 125.73950195 2.87475586 C128.12989004 2.34114139 130.52050708 1.80855128 132.91137695 1.27709961 C133.9384375 1.04369873 134.96549805 0.81029785 136.02368164 0.56982422 C144.58398311 -1.25596942 144.58398311 -1.25596942 147.48168945 0.12475586 C150.00234747 2.04210884 152.51524739 3.96014673 154.98950195 5.93725586 C155.73071289 6.49026367 156.47192383 7.04327148 157.2355957 7.61303711 C163.02121738 12.19559946 167.24235854 17.47922459 168.27208829 25.00160527 C168.75534573 31.24401741 168.65925101 37.50151049 168.62060547 43.7578125 C168.62574876 45.87274271 168.63303313 47.98766863 168.64228821 50.10258484 C168.66075678 55.82571734 168.64789249 61.54838223 168.62819791 67.2714951 C168.61177486 73.27039305 168.6206293 79.26926223 168.62571716 85.26817322 C168.63023367 95.33966515 168.61439474 105.41097108 168.58642578 115.48242188 C168.55436735 127.11595777 168.55439455 138.74915843 168.57164055 150.38271815 C168.58751917 161.58899887 168.58076399 172.79515704 168.56370354 184.00143242 C168.5568423 188.76399447 168.55785599 193.526458 168.56524849 198.28901863 C168.572925 203.89933037 168.56074019 209.50926179 168.53339958 215.11950874 C168.5265294 217.17496105 168.52640307 219.23044898 168.53361511 221.28590012 C168.54234427 224.09837429 168.52629531 226.90968399 168.50416565 229.72206116 C168.51240642 230.52946922 168.52064718 231.33687728 168.52913767 232.16875225 C168.42067803 239.67087938 165.94660708 245.92165941 161.05200195 251.62475586 C148.94105205 262.66484283 129.55379206 265.15125545 114.05200195 268.18725586 C113.22506836 268.3504834 112.39813477 268.51371094 111.54614258 268.68188477 C101.35012808 270.5830082 91.07053768 271.09455389 80.71606445 271.21069336 C79.68157669 271.22317612 78.64708893 271.23565887 77.58125305 271.2485199 C54.85927557 271.46984235 33.17541692 271.26039268 10.98950195 265.93725586 C10.07539551 265.72907227 9.16128906 265.52088867 8.21948242 265.30639648 C-3.88681061 262.50583908 -19.13783494 258.71415947 -26.44018555 247.80053711 C-30.44055919 240.96374035 -31.15949667 235.31886649 -31.15766907 227.43086243 C-31.16134576 226.57609996 -31.16502244 225.7213375 -31.16881055 224.84067315 C-31.17982067 221.97743484 -31.18368668 219.11423285 -31.1875 216.25097656 C-31.19376663 214.19752386 -31.20041361 212.14407229 -31.20741272 210.09062195 C-31.22843053 203.34810167 -31.23881251 196.60558122 -31.2487793 189.86303711 C-31.25282761 187.54003576 -31.25694455 185.21703454 -31.26112938 182.89403343 C-31.28017549 171.98038079 -31.29440813 161.0667349 -31.30274135 150.15306884 C-31.31251404 137.56277677 -31.33883697 124.9726605 -31.37924224 112.38243037 C-31.40941636 102.64552198 -31.42421144 92.90866395 -31.42752236 83.17170972 C-31.4298712 77.35868506 -31.43881053 71.54584834 -31.46398354 65.73287392 C-31.48729199 60.26221408 -31.49148619 54.79186556 -31.48122215 49.3211689 C-31.48072737 47.31772068 -31.48703065 45.31425698 -31.5007782 43.31085587 C-31.58344969 30.54507863 -31.54349087 19.71357531 -22.18237305 9.97241211 C-21.4656543 9.30081055 -20.74893555 8.62920898 -20.01049805 7.93725586 C-19.1081543 7.0903418 -18.20581055 6.24342773 -17.27612305 5.37084961 C-11.40647562 0.3907731 -7.62147514 -2.40742867 0 0 Z M19.98950195 37.93725586 C19.91939142 63.46740898 19.86650371 88.99754764 19.83406544 114.52777767 C19.81860282 126.38215797 19.7975248 138.23647843 19.76318359 150.09082031 C19.7332628 160.42420303 19.71392255 170.7575424 19.70723647 181.09096724 C19.70332878 186.56139561 19.6941576 192.03169996 19.67231178 197.50208855 C19.65190438 202.65417254 19.64567679 207.80608178 19.65017891 212.95820236 C19.64935562 214.84596139 19.64341541 216.73372643 19.63188553 218.62145042 C19.61687472 221.2065402 19.62057939 223.79097728 19.6287384 226.37608337 C19.61563062 227.48653524 19.61563062 227.48653524 19.60225803 228.61942047 C19.66155087 235.60919846 21.21558283 242.81782922 26.17700195 247.99975586 C26.97170898 248.8524707 26.97170898 248.8524707 27.7824707 249.72241211 C28.18079102 250.12331055 28.57911133 250.52420898 28.98950195 250.93725586 C25.99115617 251.35738697 22.99343093 251.74870845 19.98950195 252.12475586 C19.15032227 252.2452832 18.31114258 252.36581055 17.4465332 252.48999023 C10.24504103 253.35528581 5.62363674 252.05012492 -0.69799805 248.37475586 C-7.78173055 240.90811889 -9.1550358 232.04896899 -9.16871643 222.1164856 C-9.17365441 221.34773476 -9.17859239 220.57898391 -9.18368 219.78693759 C-9.19898903 217.22132311 -9.20739766 214.65573352 -9.21582031 212.09008789 C-9.22540403 210.24685957 -9.2354144 208.40363342 -9.24581909 206.56040955 C-9.27282076 201.56300428 -9.29385596 196.56558962 -9.31382108 191.56815195 C-9.33570988 186.34309591 -9.3630844 181.11806867 -9.38987732 175.89303589 C-9.43976508 166.00157182 -9.48471844 156.11009172 -9.52789968 146.21859634 C-9.57730554 134.95625825 -9.63221125 123.69394907 -9.68757927 112.43163896 C-9.80133919 89.26687158 -9.90819127 66.10207645 -10.01049805 42.93725586 C-13.79592732 43.60044502 -15.88887599 44.27631909 -18.76049805 46.87475586 C-19.3534668 47.3994043 -19.94643555 47.92405273 -20.55737305 48.46459961 C-23.68458102 51.63383995 -23.1461465 54.64479937 -23.16439819 58.94396973 C-23.16878045 59.67366234 -23.1731627 60.40335496 -23.17767775 61.15515947 C-23.19108806 63.61312645 -23.19724971 66.07105755 -23.20336914 68.52905273 C-23.21126864 70.28650068 -23.21953749 72.043947 -23.22814941 73.8013916 C-23.25439716 79.58624721 -23.26968435 85.37111013 -23.28393555 91.15600586 C-23.28929496 93.14746607 -23.29467247 95.13892624 -23.3000679 97.13038635 C-23.32170473 105.41713585 -23.34043952 113.70388338 -23.35169029 121.99065399 C-23.3679146 133.86285694 -23.40104633 145.73473179 -23.45809114 157.60681105 C-23.49683386 165.95513393 -23.51632838 174.30336924 -23.52161086 182.65177965 C-23.52525968 187.63660873 -23.53723028 192.62108809 -23.56971359 197.6058197 C-23.59986871 202.30087634 -23.60607956 206.99537307 -23.59432983 211.69050598 C-23.59410969 213.40853974 -23.60236556 215.12660002 -23.61998367 216.84454346 C-23.72431791 227.60927349 -22.86661676 235.74380758 -16.01049805 244.48803711 C4.48114739 262.5382951 41.4839978 261.36303058 67.30200195 261.31225586 C68.30230438 261.31204437 69.30260681 261.31183289 70.33322144 261.31161499 C87.51728162 261.27555029 104.0761205 260.17119704 120.98950195 256.93725586 C122.01865723 256.74470215 123.0478125 256.55214844 124.1081543 256.35375977 C136.89843543 253.8768197 149.19163864 251.2796025 156.98950195 239.93725586 C159.63854966 235.40054608 160.36793088 232.13348882 160.38391113 226.89595032 C160.39000224 226.21098722 160.39609334 225.52602413 160.40236902 224.82030457 C160.41894434 222.53790942 160.41423138 220.25607548 160.40942383 217.97363281 C160.41676704 216.33231021 160.42535401 214.69099277 160.43508911 213.04968262 C160.45727914 208.60158537 160.46023733 204.15367349 160.4583416 199.7055285 C160.45822186 195.99241307 160.46678659 192.27933688 160.47511911 188.56623238 C160.4943414 179.81056704 160.49724012 171.05499706 160.49047852 162.29931641 C160.48382712 153.26047929 160.50674878 144.22204914 160.54379225 135.18329459 C160.57444249 127.4235067 160.58585472 119.6638501 160.58195543 111.90400285 C160.57988434 107.2688016 160.58542356 102.63391758 160.60984802 97.99877357 C160.63203768 93.64424799 160.630303 89.29038774 160.6099205 84.93585968 C160.60649738 83.3358401 160.61165533 81.73577637 160.62590408 80.13581657 C160.64398483 77.95562913 160.63143629 75.77772649 160.61096191 73.59761047 C160.61203068 71.76617477 160.61203068 71.76617477 160.61312103 69.89774036 C160.283044 66.75511061 160.283044 66.75511061 157.60939789 65.07728863 C148.44838705 61.09092703 138.7142648 60.38685641 128.87045288 59.71676636 C107.30054585 58.19734459 87.96964573 53.83691203 67.56152344 46.61328125 C60.50742812 44.12207898 53.47444169 41.72476621 46.23950195 39.81225586 C45.53994385 39.61245117 44.84038574 39.41264648 44.11962891 39.20678711 C38.79091335 37.8778383 33.63198596 37.84673632 28.17602539 37.89086914 C27.38783417 37.89421768 26.59964294 37.89756622 25.78756714 37.90101624 C23.85486055 37.90971058 21.92217567 37.92302029 19.98950195 37.93725586 Z " fill="#DBDEE1" transform="translate(443.010498046875,437.062744140625)"/>
<path d="M0 0 C0.00331015 0.9554518 0.00662029 1.91090361 0.01003075 2.89530849 C0.09106856 26.15659392 0.18339748 49.41781371 0.28752708 72.67900753 C0.33762293 83.92799969 0.38406623 95.17698467 0.421875 106.42602539 C0.45484307 116.23206999 0.49470093 126.0380584 0.54279006 135.84404093 C0.56800712 141.03495538 0.58980257 146.22583279 0.60334396 151.41679192 C0.61620779 156.30624749 0.6383087 161.19557572 0.66738319 166.08496094 C0.67642523 167.87594281 0.68214129 169.66694518 0.68421364 171.45794868 C0.54758492 189.4999985 0.54758492 189.4999985 9 205 C13.64809518 208.86985906 19.05244116 210.21201842 25.0637207 209.88916016 C27.19717447 209.65868916 29.31459721 209.37520572 31.4375 209.0625 C32.16904297 208.96259766 32.90058594 208.86269531 33.65429688 208.75976562 C35.43738769 208.51502767 37.21888442 208.25872147 39 208 C38.566875 207.55269531 38.13375 207.10539063 37.6875 206.64453125 C33.08233276 201.64493997 33.08233276 201.64493997 32.625 198.0625 C32.74875 197.381875 32.8725 196.70125 33 196 C37.64338357 194.88596241 42.24945442 194.6654433 47 194.4375 C48.25671509 194.3770752 48.25671509 194.3770752 49.53881836 194.31542969 C52.0256128 194.20214477 54.51260154 194.09904895 57 194 C57.70012207 193.96986816 58.40024414 193.93973633 59.12158203 193.90869141 C60.93458468 193.83722733 62.74858869 193.79256105 64.5625 193.75 C66.08037109 193.71132813 66.08037109 193.71132813 67.62890625 193.671875 C68.80259766 193.83429688 68.80259766 193.83429688 70 194 C70.66 194.99 71.32 195.98 72 197 C73.65 196.67 75.3 196.34 77 196 C77.144375 195.071875 77.28875 194.14375 77.4375 193.1875 C79.17639377 189.6401567 79.60326402 189.35966265 83.125 188.0625 C87.75092698 186.77293851 91.32552884 187.06510577 96 188 C96.23332031 187.22398437 96.46664062 186.44796875 96.70703125 185.6484375 C98.29292041 182.39999988 99.39638636 181.96563741 102.6875 180.625 C113.30485023 175.63667597 117.4062999 167.32933695 122 157 C122.33 156.01 122.66 155.02 123 154 C123.99 154 124.98 154 126 154 C125.83734146 153.00528183 125.67468292 152.01056366 125.50709534 150.98570251 C124.94997953 147.06488819 124.86573088 143.18383985 124.88647461 139.22875977 C124.88632858 138.48646622 124.88618256 137.74417267 124.8860321 136.97938538 C124.88672326 134.55002824 124.89447797 132.12074983 124.90234375 129.69140625 C124.90421077 127.99747255 124.90563333 126.30353831 124.90663147 124.60960388 C124.91043432 120.16926562 124.92024538 115.7289605 124.93133545 111.28863525 C124.94159773 106.75037077 124.94613938 102.21210089 124.95117188 97.67382812 C124.9618698 88.78253759 124.9789192 79.89127156 125 71 C126.98 71 128.96 71 131 71 C131.33 69.35 131.66 67.7 132 66 C128.52852158 65.25042843 128.52852158 65.25042843 125 65 C125 49.16 125 33.32 125 17 C156.575 17 156.575 17 168 22 C170.81015304 24.81015304 170.2591124 26.58029595 170.27415466 30.51991272 C170.27939134 31.19722472 170.28462802 31.87453672 170.29002339 32.57237333 C170.30508342 34.85307669 170.30572985 37.13355688 170.30639648 39.41430664 C170.31401432 41.04530214 170.32244117 42.67629403 170.33161926 44.30728149 C170.35361717 48.74771525 170.36237105 53.18808011 170.36744571 57.62856221 C170.37108517 60.40361746 170.3773233 63.17865457 170.3844471 65.95370293 C170.40896673 75.6380073 170.42199745 85.32225798 170.42553711 95.0065918 C170.42916714 104.02703422 170.45901777 113.04713528 170.50094169 122.06747347 C170.53567856 129.81367438 170.55108619 137.55976246 170.55178314 145.3060407 C170.55257526 149.93144995 170.56128242 154.55651225 170.58978081 159.1818409 C170.61601739 163.5379494 170.61813571 167.8934249 170.60212517 172.24957657 C170.60031469 173.84385626 170.60696512 175.43817278 170.62294388 177.03237343 C170.71461619 186.77711689 170.22210892 194.40357884 163.32262325 201.79760838 C156.19567533 208.66292319 146.81575801 210.79341969 137.375 212.5625 C136.26729248 212.77156982 135.15958496 212.98063965 134.01831055 213.19604492 C131.74562066 213.61600025 129.47143175 214.02792599 127.19580078 214.43164062 C125.24128196 214.77924336 123.28854938 215.13735475 121.33935547 215.51367188 C106.89824167 218.26762513 92.3988012 218.2861383 77.75 218.3125 C76.76939606 218.31617584 75.78879211 218.31985168 74.7784729 218.32363892 C12.93157764 218.44451822 12.93157764 218.44451822 -6.87890625 200.671875 C-13.9342456 191.7844862 -13.5846944 182.39944797 -13.54931641 171.56591797 C-13.55802104 169.80256287 -13.5683908 168.03921533 -13.58029175 166.27587891 C-13.60697541 161.50741294 -13.60824057 156.73926491 -13.60316515 151.97073889 C-13.60102028 147.98445481 -13.61080576 143.99823436 -13.62037599 140.01196396 C-13.64253054 130.60835036 -13.64345973 121.20489658 -13.63134766 111.80126953 C-13.61925386 102.10743953 -13.64393366 92.41418906 -13.68648779 82.72045791 C-13.72172454 74.38644049 -13.7337223 66.05260755 -13.72721231 57.71851838 C-13.72358877 52.74561476 -13.72883769 47.77312514 -13.75664139 42.80028915 C-13.78179939 38.1263443 -13.77791089 33.45330419 -13.75181961 28.77937317 C-13.74708993 27.06654173 -13.75255129 25.35364656 -13.76906586 23.64088821 C-13.89918375 9.09532716 -13.89918375 9.09532716 -10.20346069 4.55154419 C-7.12956934 1.67441526 -4.24722885 0 0 0 Z " fill="#8A201E" transform="translate(433,480)"/>
<path d="M0 0 C0 1.32 0 2.64 0 4 C0.30840599 6.15274948 0.30840599 6.15274948 1 8 C2.96697836 9.20368695 2.96697836 9.20368695 5.2578125 8.7890625 C11.07506316 8.4561953 14.77874279 9.52812397 19.24609375 13.2265625 C28.57330886 21.663672 36.39548786 29.96896219 38 43 C38.11229416 46.29313272 38.09475065 49.58047189 38.0625 52.875 C38.05798828 53.75414062 38.05347656 54.63328125 38.04882812 55.5390625 C38.03712337 57.69273803 38.01919069 59.84637817 38 62 C28.41952252 63.60200438 19.22793137 64.30786992 9.51171875 64.30078125 C8.15672175 64.30469106 6.80172593 64.30903017 5.44673157 64.31376648 C2.62224341 64.3211608 -0.20211968 64.32099087 -3.02661133 64.31567383 C-5.86433896 64.31107224 -8.701635 64.31785818 -11.53930664 64.33618164 C-29.54737146 64.45146825 -47.15977866 63.74183325 -65 61 C-65.78595551 60.87960358 -66.57191101 60.75920715 -67.38168335 60.63516235 C-79.20272384 58.78829391 -90.55922611 55.43924081 -102 52 C-102.08166849 48.99943916 -102.14081551 46.0011461 -102.1875 43 C-102.21263672 42.16082031 -102.23777344 41.32164062 -102.26367188 40.45703125 C-102.3508989 32.95550708 -100.97104255 26.20867949 -95.65625 20.4921875 C-71.56833387 -1.20966146 -30.27824364 -0.51832653 0 0 Z " fill="#B1B1B1" transform="translate(520,314)"/>
<path d="M0 0 C1.53333984 0.00676758 1.53333984 0.00676758 3.09765625 0.01367188 C5.60683194 0.025397 8.1158849 0.04180824 10.625 0.0625 C10.625 0.3925 10.625 0.7225 10.625 1.0625 C6.995 1.0625 3.365 1.0625 -0.375 1.0625 C-0.31444796 26.59274522 -0.2369355 52.12289033 -0.13928509 77.65302181 C-0.09433787 89.50736031 -0.05492066 101.36166884 -0.02856445 113.21606445 C-0.00557576 123.54950351 0.02783216 133.88284763 0.07370156 144.21621138 C0.09762187 149.68659943 0.11635852 155.15689354 0.12261391 160.62733269 C0.12867006 165.77948042 0.14868943 170.93138781 0.17927551 176.0834465 C0.18804717 177.97117887 0.19178013 179.85894265 0.19000816 181.74669456 C0.18834819 184.3318477 0.20511589 186.91627437 0.22627258 189.50132751 C0.22142501 190.24162876 0.21657743 190.98193 0.21158296 191.74466461 C0.30907215 199.00385775 2.15545362 205.93305442 6.8125 211.625 C7.34230469 212.28628906 7.87210937 212.94757813 8.41796875 213.62890625 C8.81628906 214.10199219 9.21460938 214.57507813 9.625 215.0625 C6.46182778 215.49043201 3.29470944 215.8738196 0.125 216.25 C-0.761875 216.37052734 -1.64875 216.49105469 -2.5625 216.61523438 C-10.20507894 217.48626359 -15.01714183 216.23523176 -21.5625 212 C-26.96851329 207.12572572 -29.43218081 200.09069031 -30.375 193.0625 C-30.4629971 190.44597203 -30.50598348 187.85737599 -30.49525452 185.24172974 C-30.49610894 184.4729789 -30.49696337 183.70422806 -30.49784368 182.91218174 C-30.49948555 180.34654116 -30.49399835 177.78096654 -30.48852539 175.21533203 C-30.48824321 173.37210593 -30.48840185 171.52887972 -30.4889679 169.68565369 C-30.48925468 164.68822462 -30.48337712 159.69081958 -30.47639394 154.69339609 C-30.47014064 149.46835864 -30.46955503 144.24332064 -30.46836853 139.01828003 C-30.46526105 129.12679487 -30.4570555 119.23532077 -30.44701904 109.34384048 C-30.43583982 98.08152292 -30.43034289 86.81920483 -30.42532361 75.5568831 C-30.41487242 52.3920826 -30.39728424 29.22729192 -30.375 6.0625 C-31.035 5.7325 -31.695 5.4025 -32.375 5.0625 C-30.00092408 4.41310264 -27.6258361 3.76789947 -25.25 3.125 C-24.58484375 2.94259766 -23.9196875 2.76019531 -23.234375 2.57226562 C-15.30344885 0.43402573 -8.17153769 -0.06853548 0 0 Z " fill="#E4C5C2" transform="translate(463.375,473.9375)"/>
<path d="M0 0 C0.76957031 0.23783203 0.76957031 0.23783203 1.5546875 0.48046875 C3.25938372 0.99991322 4.96683734 1.51033057 6.67578125 2.015625 C9.05264278 2.71946649 11.42454931 3.44012852 13.79296875 4.171875 C31.98548125 9.64351616 51.00008063 12.68254408 70 13 C71.5775708 13.0306958 71.5775708 13.0306958 73.18701172 13.06201172 C102.7767242 13.55756261 133.97047872 12.42500445 161.6640625 0.78515625 C164 0 164 0 167 1 C167.10845031 3.56364483 167.18749744 6.12266279 167.25 8.6875 C167.30027344 9.7693457 167.30027344 9.7693457 167.3515625 10.87304688 C167.41963087 14.59979003 167.24887515 16.57177116 165.3359375 19.86328125 C143.87715429 39.49196756 91.35886846 35.06386087 64 34 C13.17980416 31.29494099 13.17980416 31.29494099 0 19 C-1.19825457 15.40523628 -1.14608744 12.11450601 -1.125 8.375 C-1.12886719 7.68148438 -1.13273437 6.98796875 -1.13671875 6.2734375 C-1.12666646 1.12666646 -1.12666646 1.12666646 0 0 Z " fill="#B0B0B0" transform="translate(429,407)"/>
<path d="M0 0 C-3.34176921 3.34176921 -6.93778453 3.95245542 -11.578125 4.16015625 C-13.39570313 4.11181641 -13.39570313 4.11181641 -15.25 4.0625 C-19.78914551 3.76097134 -19.78914551 3.76097134 -24 5 C-23.835 5.598125 -23.67 6.19625 -23.5 6.8125 C-23 9 -23 9 -23 12 C-24.95943584 14.65923436 -27.10075629 17.11754901 -29.25 19.625 C-31.29659952 21.9108436 -31.29659952 21.9108436 -31 25 C-29.02 25.99 -27.04 26.98 -25 28 C-25.33 28.66 -25.66 29.32 -26 30 C-28.14453125 30.45703125 -28.14453125 30.45703125 -30.8125 30.8125 C-34.24953075 31.45877929 -35.72235919 31.76507316 -38.4375 34.0625 C-43.25604039 43.12135594 -43.64158875 51.92740799 -44 62 C-61.32902013 60.76484644 -77.45035061 57.24072231 -94 52 C-94.08166849 48.99943916 -94.14081551 46.0011461 -94.1875 43 C-94.21263672 42.16082031 -94.23777344 41.32164062 -94.26367188 40.45703125 C-94.3508989 32.95550708 -92.97104255 26.20867949 -87.65625 20.4921875 C-65.72460838 0.73301981 -27.96507037 -0.72116227 0 0 Z " fill="#EDEDED" transform="translate(512,314)"/>
<path d="M0 0 C11.91987926 -0.54090208 23.27910805 0.99113302 35 3 C35.84353027 3.14453613 36.68706055 3.28907227 37.55615234 3.43798828 C53.1800979 6.20814788 71.31089424 10.15801312 81.75 23.18359375 C84.60936979 27.61074299 86.13157137 31.34329499 86.09765625 36.66796875 C86.09282227 38.00698242 86.09282227 38.00698242 86.08789062 39.37304688 C86.07532227 40.76620117 86.07532227 40.76620117 86.0625 42.1875 C86.05798828 43.12787109 86.05347656 44.06824219 86.04882812 45.03710938 C86.03704626 47.35813712 86.02059558 49.67903644 86 52 C75.69862683 55.41441847 65.36314788 57.84820361 54.6875 59.8125 C53.50115967 60.03123779 52.31481934 60.24997559 51.0925293 60.4753418 C46.64346264 61.27078972 42.52987497 62 38 62 C37.95101562 60.72125 37.90203125 59.4425 37.8515625 58.125 C37.77647009 56.41664778 37.70092513 54.70831541 37.625 53 C37.5940625 52.16082031 37.563125 51.32164062 37.53125 50.45703125 C36.86643907 36.16359636 32.54774907 26.62662714 22 17 C21.4328125 16.38511719 20.865625 15.77023437 20.28125 15.13671875 C16.63728994 11.39451467 14.04470707 10.66638199 8.8125 10.375 C7.80832031 10.38273437 6.80414062 10.39046875 5.76953125 10.3984375 C3 10 3 10 0.57421875 8.3515625 C-1 6 -1 6 -0.75 2.75 C-0.5025 1.8425 -0.255 0.935 0 0 Z " fill="#838384" transform="translate(520,314)"/>
<path d="M0 0 C0.70157227 0.19110352 1.40314453 0.38220703 2.12597656 0.57910156 C15.57349981 4.19908595 28.88720888 7.41878299 42.6875 9.375 C43.76999023 9.53000977 44.85248047 9.68501953 45.96777344 9.84472656 C76.21640366 13.85776635 107.77826492 13.5489599 138 9.75 C138.82483887 9.64757996 139.64967773 9.54515991 140.49951172 9.43963623 C156.20152613 7.44459844 171.81278347 4.50497209 187 0 C186.59879957 5.81740621 185.93859349 9.43952333 182 14 C158.07701629 29.10925287 123.80130059 28.18719797 96.47387695 28.18530273 C92.97008943 28.18747975 89.46662233 28.20565964 85.96289062 28.22460938 C68.50167591 28.26898928 51.39808234 27.24903613 34.1875 24.1875 C33.23174072 24.01790771 32.27598145 23.84831543 31.29125977 23.67358398 C20.55441481 21.67189123 10.19993408 19.6031412 2 12 C-0.3093756 8.0110785 -0.0530511 4.53056408 0 0 Z " fill="#B1B1B1" transform="translate(419,371)"/>
<path d="M0 0 C0.00423194 0.9563736 0.00846388 1.91274719 0.01282406 2.89810181 C0.11604727 26.17570233 0.22479955 49.45327203 0.33933926 72.7308197 C0.3946021 83.987691 0.44807262 95.24456547 0.49731445 106.50146484 C0.54024137 116.31370564 0.58654067 126.12592375 0.63687855 135.93812943 C0.66341102 141.1329196 0.68826219 146.32770547 0.70907402 151.52252197 C0.72872549 156.41439801 0.75289421 161.30623115 0.78049088 166.19806862 C0.78981639 167.99108917 0.79750761 169.7841191 0.80341911 171.57715416 C0.81175727 174.03105626 0.82605448 176.48485638 0.84178162 178.9387207 C0.84324878 179.9951776 0.84324878 179.9951776 0.84474558 181.07297707 C0.88350546 185.79772598 1.34535516 190.3301435 2 195 C-1.3 194.01 -4.6 193.02 -8 192 C-8.99 193.98 -8.99 193.98 -10 196 C-12.49426415 190.88737579 -13.37896701 187.15699782 -13.40113831 181.37182617 C-13.41133331 180.26770401 -13.41133331 180.26770401 -13.42173427 179.14127636 C-13.44062091 176.69169409 -13.4382751 174.24261545 -13.43579102 171.79296875 C-13.44477367 170.02991091 -13.45498309 168.26685895 -13.46632385 166.5038147 C-13.49277078 161.72702033 -13.49985491 156.95038727 -13.50177121 152.17352676 C-13.50390621 149.18755677 -13.51031562 146.20162757 -13.51826286 143.21566772 C-13.54599477 132.7944682 -13.55827059 122.37338364 -13.5559082 111.95214844 C-13.55410464 102.24360872 -13.58579061 92.53556841 -13.63313919 82.82715511 C-13.67237375 74.48469919 -13.68845966 66.14240652 -13.68654197 57.79985905 C-13.68577749 52.82020043 -13.69430522 47.84098623 -13.72607613 42.86141968 C-13.75513589 38.17932036 -13.75534736 33.49809001 -13.73352623 28.81595993 C-13.73039101 27.09989527 -13.73746423 25.38377633 -13.7556076 23.66780472 C-13.89970841 9.09287185 -13.89970841 9.09287185 -10.20445251 4.54956055 C-7.12999137 1.67446343 -4.2461269 0 0 0 Z " fill="#AE3332" transform="translate(433,480)"/>
<path d="M0 0 C0 2.97 0 5.94 0 9 C-7.13790419 12.60589777 -14.11724593 14.65801609 -21.9375 16.125 C-22.71504639 16.27098633 -23.49259277 16.41697266 -24.29370117 16.56738281 C-27.19060784 17.08109751 -30.09407837 17.53982473 -33 18 C-33.70935699 18.12139343 -34.41871399 18.24278687 -35.14956665 18.36785889 C-48.54798014 20.64954975 -61.61587124 21.47431975 -75.20092773 21.39111328 C-78.30041854 21.37506256 -81.39859559 21.39105558 -84.49804688 21.41015625 C-109.39167493 21.43705859 -134.90789839 18.80210017 -158 9 C-157.67 6.36 -157.34 3.72 -157 1 C-150.15494623 1.76582493 -143.48183781 3.03469357 -136.74414062 4.45117188 C-117.59267898 8.26984846 -98.3333013 8.43717354 -78.875 8.4375 C-78.19149727 8.43855869 -77.50799454 8.43961739 -76.8037796 8.44070816 C-51.95536553 8.47704596 -28.48658979 6.88762176 -4.35009766 0.56176758 C-2 0 -2 0 0 0 Z " fill="#A7A7A7" transform="translate(591,395)"/>
<path d="M0 0 C-0.99 0 -1.98 0 -3 0 C-3 0.66 -3 1.32 -3 2 C-3.97839844 2.23074219 -4.95679688 2.46148437 -5.96484375 2.69921875 C-13.63754907 4.57596737 -20.37733702 6.55955876 -27 11 C-27.54043945 11.34305176 -28.08087891 11.68610352 -28.63769531 12.03955078 C-37.80179459 17.87912674 -44.43898085 23.31694254 -48 34 C-48.1464714 35.55266653 -48.24694074 37.10995662 -48.31640625 38.66796875 C-48.35830078 39.56064453 -48.40019531 40.45332031 -48.44335938 41.37304688 C-48.48267578 42.30181641 -48.52199219 43.23058594 -48.5625 44.1875 C-48.60568359 45.12787109 -48.64886719 46.06824219 -48.69335938 47.03710938 C-48.79938665 49.35792854 -48.90145029 51.67885325 -49 54 C-55.0504794 52.82351789 -61.02584042 51.51907049 -67 50 C-67.08166849 46.99943916 -67.14081551 44.0011461 -67.1875 41 C-67.21263672 40.16082031 -67.23777344 39.32164062 -67.26367188 38.45703125 C-67.3508989 30.95550708 -65.97104255 24.20867949 -60.65625 18.4921875 C-47.42811711 6.57438853 -28.16039369 2.52930973 -11 0 C-9.12248047 -0.29583984 -9.12248047 -0.29583984 -7.20703125 -0.59765625 C-4.33616691 -0.95782559 -2.67878646 -0.96436312 0 0 Z " fill="#AEAEAF" transform="translate(485,316)"/>
<path d="M0 0 C0.10845031 2.56364483 0.18749744 5.12266279 0.25 7.6875 C0.30027344 8.7693457 0.30027344 8.7693457 0.3515625 9.87304688 C0.41963087 13.59979003 0.24887515 15.57177116 -1.6640625 18.86328125 C-9.24611602 25.79870479 -21.88415754 26.95929651 -31.625 28.875 C-32.77564941 29.10251953 -33.92629883 29.33003906 -35.11181641 29.56445312 C-36.20155762 29.76748047 -37.29129883 29.97050781 -38.4140625 30.1796875 C-39.3932666 30.36257324 -40.3724707 30.54545898 -41.38134766 30.73388672 C-43.9278508 30.99266804 -45.59296027 30.80377044 -48 30 C-47.01 30 -46.02 30 -45 30 C-44.67 23.4 -44.34 16.8 -44 10 C-42.21335937 9.62488281 -40.42671875 9.24976563 -38.5859375 8.86328125 C-21.70189612 5.32914712 -21.70189612 5.32914712 -5.40625 -0.21484375 C-3 -1 -3 -1 0 0 Z " fill="#808081" transform="translate(596,408)"/>
<path d="M0 0 C0.76957031 0.23783203 0.76957031 0.23783203 1.5546875 0.48046875 C14.59011135 4.45254235 27.69275665 8.06002763 41 11 C41.495 20.405 41.495 20.405 42 30 C28.85386486 30 10.12795485 28.49721033 0 19 C-1.19825457 15.40523628 -1.14608744 12.11450601 -1.125 8.375 C-1.12886719 7.68148438 -1.13273437 6.98796875 -1.13671875 6.2734375 C-1.12666646 1.12666646 -1.12666646 1.12666646 0 0 Z " fill="#ECECEC" transform="translate(429,407)"/>
<path d="M0 0 C0.66 0 1.32 0 2 0 C2.51046875 1.17755859 2.51046875 1.17755859 3.03125 2.37890625 C8.05320028 13.26425062 13.78827324 18.82155554 25 23 C25 23.66 25 24.32 25 25 C24.21496094 25.3403125 23.42992187 25.680625 22.62109375 26.03125 C11.73574938 31.05320028 6.17844446 36.78827324 2 48 C1.34 48 0.68 48 0 48 C-0.3403125 47.21496094 -0.680625 46.42992187 -1.03125 45.62109375 C-6.05320028 34.73574938 -11.78827324 29.17844446 -23 25 C-23 24.34 -23 23.68 -23 23 C-22.21496094 22.6596875 -21.42992187 22.319375 -20.62109375 21.96875 C-9.73574938 16.94679972 -4.17844446 11.21172676 0 0 Z " fill="#F8F6EF" transform="translate(967,944)"/>
<path d="M0 0 C0.87011719 0.14308594 1.74023438 0.28617187 2.63671875 0.43359375 C4.75875695 0.78338027 6.87952028 1.1408865 9 1.5 C7.85378301 3.92488571 6.83136374 5.69583566 5.0625 7.75 C1.23620931 12.85172092 -0.05020808 18.25977829 -1 24.5 C-2.12277344 24.62117188 -3.24554688 24.74234375 -4.40234375 24.8671875 C-12.06284131 25.71730859 -19.49197715 26.71843526 -27 28.5 C-28.32 28.5 -29.64 28.5 -31 28.5 C-31.52943318 16.55834043 -29.01060893 9.43911133 -21 0.5 C-14.94309883 -3.53793412 -6.8310721 -1.16474501 0 0 Z " fill="#EEEEF0" transform="translate(464,449.5)"/>
<path d="M0 0 C0.73822998 0.19634033 1.47645996 0.39268066 2.23706055 0.5949707 C17.75668518 4.68870628 33.04320066 8.18672735 49 10 C49.19698486 11.019729 49.19698486 11.019729 49.39794922 12.06005859 C49.57342285 12.95547363 49.74889648 13.85088867 49.9296875 14.7734375 C50.10226074 15.65950684 50.27483398 16.54557617 50.45263672 17.45849609 C51.08467199 20.39314692 51.96263517 23.18429545 53 26 C36.90882899 26.60341891 14.12391692 23.24153577 2 12 C-0.3093756 8.0110785 -0.0530511 4.53056408 0 0 Z " fill="#ECEDED" transform="translate(419,371)"/>
<path d="M0 0 C-0.40120043 5.81740621 -1.06140651 9.43952333 -5 14 C-9.72961052 17.00709804 -14.35073109 19.02544437 -19.75 20.5625 C-20.47227783 20.77156982 -21.19455566 20.98063965 -21.9387207 21.19604492 C-32.22725408 24.04340066 -43.28662557 26.32464771 -54 26 C-53.54625 25.01 -53.0925 24.02 -52.625 23 C-50.93307285 19.07889869 -49.94856099 15.15907513 -49 11 C-50.32 10.67 -51.64 10.34 -53 10 C-51.83150513 9.85751831 -51.83150513 9.85751831 -50.6394043 9.7121582 C-34.55012211 7.71566063 -15.61789148 0 0 0 Z " fill="#808080" transform="translate(606,371)"/>
<path d="M0 0 C3.42269525 0.01702279 6.84468623 0.00698804 10.26735687 -0.0103569 C27.32319472 -0.08302144 43.99113674 0.85156526 60.87255859 3.39111328 C60.87255859 4.05111328 60.87255859 4.71111328 60.87255859 5.39111328 C42.59105178 6.59628923 24.30678049 6.57876113 5.99462891 6.57641602 C1.59855669 6.57631349 -2.7973573 6.59009741 -7.1933918 6.60718822 C-10.62343055 6.61835469 -14.05343112 6.620334 -17.48348618 6.61980629 C-19.10439486 6.62097431 -20.72530493 6.62532858 -22.34619522 6.63313866 C-31.12178907 6.67155984 -39.53548361 6.43817192 -48.12744141 4.39111328 C-48.12744141 4.06111328 -48.12744141 3.73111328 -48.12744141 3.39111328 C-32.0887982 0.44016426 -16.26571185 -0.08187591 0 0 Z " fill="#2D2C2A" transform="translate(506.12744140625,686.60888671875)"/>
<path d="M0 0 C4.98882657 0.70538736 8.7954476 1.62642515 12.19921875 5.5078125 C13.48900664 7.40828582 14.73233454 9.34145798 15.91796875 11.30859375 C20.17536342 16.81205515 25.32641299 18.40273904 31.94335938 19.36914062 C32.76642578 19.47419922 33.58949219 19.57925781 34.4375 19.6875 C35.22576172 19.80416016 36.01402344 19.92082031 36.82617188 20.04101562 C52.60066824 22.23777869 68.6057535 22.25251032 84.5 22.5625 C86.59505839 22.60581583 88.69011056 22.64943363 90.78515625 22.69335938 C95.85670601 22.79904654 100.92832183 22.90067431 106 23 C106.495 23.99 106.495 23.99 107 25 C107.99 25.66 108.98 26.32 110 27 C103.79680502 27.05020954 97.59373361 27.08609382 91.39038086 27.10986328 C89.28912287 27.11979376 87.1878782 27.13334264 85.08666992 27.15087891 C20.82682363 27.67294217 20.82682363 27.67294217 1.76953125 9.29296875 C-0.04327862 6.94391931 -0.60721998 5.85934918 -0.625 2.9375 C-0.41875 1.968125 -0.2125 0.99875 0 0 Z " fill="#8F2925" transform="translate(424,671)"/>
<path d="M0 0 C0 2.97 0 5.94 0 9 C-12.49016179 15.30972976 -26.26776815 17.12657137 -40 19 C-40.47985967 17.72942818 -40.9588593 16.45853152 -41.4375 15.1875 C-41.83775391 14.12595703 -41.83775391 14.12595703 -42.24609375 13.04296875 C-42.86225186 11.37327604 -43.43719235 9.68842296 -44 8 C-43.15405273 7.86424561 -42.30810547 7.72849121 -41.43652344 7.58862305 C-38.23759831 7.07271668 -35.03947694 6.55212827 -31.84179688 6.02856445 C-30.4690455 5.80473933 -29.09600562 5.58267503 -27.72265625 5.36254883 C-19.8085962 4.09271244 -12.01526929 2.63847899 -4.26660156 0.56176758 C-2 0 -2 0 0 0 Z " fill="#808081" transform="translate(591,395)"/>
<path d="M0 0 C0.64066406 0.19335938 1.28132813 0.38671875 1.94140625 0.5859375 C6.95110985 2.0940748 11.96539857 3.57717786 17 5 C16.01 5.495 16.01 5.495 15 6 C14.97310551 8.95839355 14.95321259 11.91654427 14.9375 14.875 C14.92912109 15.71675781 14.92074219 16.55851562 14.91210938 17.42578125 C14.90888672 18.23144531 14.90566406 19.03710938 14.90234375 19.8671875 C14.89710693 20.61081543 14.89187012 21.35444336 14.88647461 22.12060547 C14.88213364 24.09132568 14.88213364 24.09132568 16 26 C10.17878358 25.01686123 5.6602603 23.8646061 1 20 C-1.52274689 16.37033356 -1.26437217 12.56474451 -1.1875 8.3125 C-1.18685547 7.62349609 -1.18621094 6.93449219 -1.18554688 6.22460938 C-1.14055525 1.14055525 -1.14055525 1.14055525 0 0 Z " fill="#AEAEAE" transform="translate(429,407)"/>
<path d="M0 0 C2.46869861 0.51055811 4.91973385 1.05598759 7.375 1.625 C8.07367188 1.76550781 8.77234375 1.90601563 9.4921875 2.05078125 C11.5234375 2.5390625 11.5234375 2.5390625 15 4 C16.40625 6.8125 16.40625 6.8125 17 10 C17.20882813 10.91523438 17.41765625 11.83046875 17.6328125 12.7734375 C17.79523438 13.63195312 17.95765625 14.49046875 18.125 15.375 C18.29257812 16.24898438 18.46015625 17.12296875 18.6328125 18.0234375 C18.75398438 18.67570312 18.87515625 19.32796875 19 20 C12.04922918 19.06679466 7.04608491 16.9597216 2 12 C-0.42090934 8.06602232 -0.04242193 4.53384427 0 0 Z " fill="#B4B5B4" transform="translate(419,371)"/>
<path d="M0 0 C5.10593996 0.72194643 8.83061923 1.71329649 12.375 5.61328125 C13.76224527 7.57939541 15.10854671 9.57523072 16.40625 11.6015625 C17.77698073 14.09575911 17.77698073 14.09575911 20 15 C20 15.99 20 16.98 20 18 C12.89741172 17.74633613 9.29692105 15.61722764 4 11 C3.175 10.360625 2.35 9.72125 1.5 9.0625 C-0.67681151 6.06938418 -0.27638573 3.5930145 0 0 Z " fill="#8A2421" transform="translate(424,671)"/>
<path d="M0 0 C0 0.33 0 0.66 0 1 C-1.98 1 -3.96 1 -6 1 C-6 1.66 -6 2.32 -6 3 C-13.58292518 4.91712781 -21.18308946 5.77260162 -29 5 C-29.66 4.34 -30.32 3.68 -31 3 C-32.97760261 2.67043065 -32.97760261 2.67043065 -35.26611328 2.68115234 C-36.14687531 2.66128265 -37.02763733 2.64141296 -37.93508911 2.62094116 C-38.88721283 2.60938995 -39.83933655 2.59783875 -40.8203125 2.5859375 C-41.79410858 2.56657135 -42.76790466 2.5472052 -43.77120972 2.5272522 C-46.88905003 2.46735442 -50.00692706 2.42103029 -53.125 2.375 C-55.23569341 2.33682961 -57.34637108 2.29777844 -59.45703125 2.2578125 C-64.63788144 2.16164473 -69.81882597 2.07662736 -75 2 C-75 1.67 -75 1.34 -75 1 C-67.28840098 0.86821944 -59.57678103 0.73774292 -51.86513329 0.60884857 C-48.28279939 0.54893336 -44.70047364 0.48859937 -41.11816406 0.42724609 C-37.64925424 0.36785144 -34.18032628 0.30963802 -30.71138382 0.25218201 C-28.76976457 0.21973313 -26.82816493 0.1861177 -24.88656616 0.15246582 C-16.58970805 0.01633388 -8.2978888 -0.02507125 0 0 Z " fill="#7E231F" transform="translate(560,692)"/>
<path d="M0 0 C11.88 0.33 23.76 0.66 36 1 C35.67 1.99 35.34 2.98 35 4 C30.19450253 4.02468447 25.38904182 4.04285255 20.58349609 4.05493164 C18.94807289 4.05996621 17.3126542 4.06679427 15.67724609 4.07543945 C13.32909025 4.08754335 10.98099381 4.093237 8.6328125 4.09765625 C7.53273361 4.10539818 7.53273361 4.10539818 6.41043091 4.11329651 C1.22774341 4.11387171 1.22774341 4.11387171 -1 3 C-0.67 2.01 -0.34 1.02 0 0 Z " fill="#2A2929" transform="translate(489,416)"/>
<path d="M0 0 C1.43859375 -0.00773437 1.43859375 -0.00773437 2.90625 -0.015625 C5.5 0.25 5.5 0.25 8.5 2.25 C8.5 3.24 8.5 4.23 8.5 5.25 C5.14802157 7.48465229 3.92208754 7.52108649 0 7.5 C-1.43859375 7.50773437 -1.43859375 7.50773437 -2.90625 7.515625 C-5.5 7.25 -5.5 7.25 -8.5 5.25 C-8.5 4.26 -8.5 3.27 -8.5 2.25 C-5.14802157 0.01534771 -3.92208754 -0.02108649 0 0 Z " fill="#3B3A3A" transform="translate(511.5,326.75)"/>
<path d="M0 0 C1.79244141 0.01740234 1.79244141 0.01740234 3.62109375 0.03515625 C5.41740234 0.04869141 5.41740234 0.04869141 7.25 0.0625 C8.17683594 0.07410156 9.10367188 0.08570313 10.05859375 0.09765625 C10.71859375 1.41765625 11.37859375 2.73765625 12.05859375 4.09765625 C9.36785548 6.78839452 8.004969 7.10191218 4.12109375 7.41015625 C0.75185048 7.29050088 -1.89758815 6.6195653 -4.94140625 5.09765625 C-3.81895287 0.12679126 -3.81895287 0.12679126 0 0 Z " fill="#2D2D2B" transform="translate(548.94140625,323.90234375)"/>
<path d="M0 0 C1.29550781 -0.02126953 1.29550781 -0.02126953 2.6171875 -0.04296875 C5.2491288 0.19890748 6.86480544 0.85766459 9.125 2.1875 C7.375 6.0625 7.375 6.0625 5.125 7.1875 C3.48244209 7.30864921 1.83447522 7.36290767 0.1875 7.375 C-0.68777344 7.38917969 -1.56304688 7.40335937 -2.46484375 7.41796875 C-4.875 7.1875 -4.875 7.1875 -7.875 5.1875 C-7.5 3.25 -7.5 3.25 -6.875 1.1875 C-4.42528376 -0.03735812 -2.73265539 0.02027192 0 0 Z " fill="#353433" transform="translate(534.875,333.8125)"/>
<path d="M0 0 C3.0625 1.5 3.0625 1.5 5 3 C4 6 4 6 2 7 C0.19051505 7.12176503 -1.62396271 7.17545792 -3.4375 7.1875 C-4.40558594 7.20167969 -5.37367188 7.21585937 -6.37109375 7.23046875 C-9 7 -9 7 -12 5 C-11.625 3.0625 -11.625 3.0625 -11 1 C-7.56143022 -0.71928489 -3.76751104 -0.38974252 0 0 Z " fill="#323131" transform="translate(492,334)"/>
<path d="M0 0 C3.0625 1.5 3.0625 1.5 5 3 C4 6 4 6 2 7 C0.19051505 7.12176503 -1.62396271 7.17545792 -3.4375 7.1875 C-4.40558594 7.20167969 -5.37367188 7.21585937 -6.37109375 7.23046875 C-9 7 -9 7 -12 5 C-11.625 3.0625 -11.625 3.0625 -11 1 C-7.56143022 -0.71928489 -3.76751104 -0.38974252 0 0 Z " fill="#2B2929" transform="translate(474,323)"/>
<path d="M0 0 C0.77085937 -0.01417969 1.54171875 -0.02835937 2.3359375 -0.04296875 C4.84334888 0.20948393 6.45761902 0.93556533 8.625 2.1875 C8.625 3.1775 8.625 4.1675 8.625 5.1875 C4.15121297 7.49655137 -0.42982616 7.84815191 -5.375 7.1875 C-6.035 6.5275 -6.695 5.8675 -7.375 5.1875 C-7.125 3.125 -7.125 3.125 -6.375 1.1875 C-4.04904054 0.02452027 -2.58776769 0.02149309 0 0 Z " fill="#383837" transform="translate(494.375,316.8125)"/>
<path d="M0 0 C3 1.5 3 1.5 5 3 C4.67 3.99 4.34 4.98 4 6 C1.03650719 6.98783094 -0.9712663 7.13410525 -4.0625 7.125 C-5.37927734 7.12886719 -5.37927734 7.12886719 -6.72265625 7.1328125 C-9 7 -9 7 -11 6 C-10.625 3.5625 -10.625 3.5625 -10 1 C-6.81558048 -0.59220976 -3.4662845 -0.3976617 0 0 Z " fill="#353434" transform="translate(532,317)"/>
<path d="M0 0 C-3.40263069 3.40263069 -7.08301345 3.94433929 -11.796875 4.23046875 C-13.10140625 4.21628906 -14.4059375 4.20210938 -15.75 4.1875 C-17.72226562 4.17783203 -17.72226562 4.17783203 -19.734375 4.16796875 C-23 4 -23 4 -25 3 C-26.67654729 3.27942455 -28.34608154 3.60828247 -30 4 C-30 3.34 -30 2.68 -30 2 C-20.61278241 -1.12907253 -9.79343336 -0.11059084 0 0 Z " fill="#DDDDDC" transform="translate(512,314)"/>
<path d="M0 0 C3 0.125 3 0.125 4 1.125 C4.1875 3.5625 4.1875 3.5625 4 6.125 C3.34 6.785 2.68 7.445 2 8.125 C-2.55555556 7.56944444 -2.55555556 7.56944444 -4 6.125 C-4.125 3.625 -4.125 3.625 -4 1.125 C-3 0.125 -3 0.125 0 0 Z " fill="#8D201D" transform="translate(527,610.875)"/>
<path d="M0 0 C2.5625 0.1875 2.5625 0.1875 4.5625 2.1875 C4.00694444 6.74305556 4.00694444 6.74305556 2.5625 8.1875 C0.0625 8.3125 0.0625 8.3125 -2.4375 8.1875 C-3.4375 7.1875 -3.4375 7.1875 -3.5625 4.1875 C-3.39891479 0.26145498 -3.39891479 0.26145498 0 0 Z " fill="#8B1E1C" transform="translate(466.4375,590.8125)"/>
<path d="M0 0 C4.875 0.875 4.875 0.875 6 2 C6.04080783 3.99958364 6.04254356 6.00045254 6 8 C4.25 8.75 4.25 8.75 2 9 C-0.25 7.0625 -0.25 7.0625 -2 5 C-1.34 3.35 -0.68 1.7 0 0 Z " fill="#931E1B" transform="translate(512,554)"/>
<path d="M0 0 C0.78310547 0.30744141 0.78310547 0.30744141 1.58203125 0.62109375 C7.70748632 2.86316049 13.50382011 3.64787062 20 4 C20 4.66 20 5.32 20 6 C11.89563895 7.98474148 4.74839684 5.3507506 -3 3 C-2.01 2.67 -1.02 2.34 0 2 C0 1.34 0 0.68 0 0 Z " fill="#994038" transform="translate(444,687)"/>
<path d="M0 0 C2.5625 0.1875 2.5625 0.1875 4.5625 2.1875 C4.1875 4.8125 4.1875 4.8125 3.5625 7.1875 C1.1875 7.8125 1.1875 7.8125 -1.4375 8.1875 C-3.4375 6.1875 -3.4375 6.1875 -3.625 3.625 C-3.37291261 0.34786389 -3.27713611 0.25208739 0 0 Z " fill="#8D1F1D" transform="translate(479.4375,503.8125)"/>
<path d="M0 0 C2.27057377 -0.05398987 4.54151288 -0.09278742 6.8125 -0.125 C8.07707031 -0.14820313 9.34164062 -0.17140625 10.64453125 -0.1953125 C14 0 14 0 17 2 C16.08476563 2.13277344 15.16953125 2.26554687 14.2265625 2.40234375 C13.03804687 2.57894531 11.84953125 2.75554687 10.625 2.9375 C9.44164062 3.11152344 8.25828125 3.28554688 7.0390625 3.46484375 C4.09297619 3.83462786 4.09297619 3.83462786 2 5 C1.34 5.99 0.68 6.98 0 8 C-0.99435406 4.90645403 -0.87840996 3.09720845 0 0 Z " fill="#8B8C8C" transform="translate(520,314)"/>
<path d="M0 0 C2.625 0.375 2.625 0.375 5 1 C5.625 3.375 5.625 3.375 6 6 C5.34 6.66 4.68 7.32 4 8 C0.875 7.625 0.875 7.625 -2 7 C-2.125 4.625 -2.125 4.625 -2 2 C-1.34 1.34 -0.68 0.68 0 0 Z " fill="#921D1A" transform="translate(477,656)"/>
<path d="M0 0 C1 1 1 1 1.125 3.5 C1 6 1 6 0 7 C-2.4375 7.1875 -2.4375 7.1875 -5 7 C-5.66 6.34 -6.32 5.68 -7 5 C-6.75 2.4375 -6.75 2.4375 -6 0 C-3.49749232 -1.25125384 -2.59701335 -0.83774624 0 0 Z " fill="#891E1B" transform="translate(509,649)"/>
<path d="M0 0 C2.625 0.375 2.625 0.375 5 1 C5.625 3.375 5.625 3.375 6 6 C5.34 6.66 4.68 7.32 4 8 C1.375 7.625 1.375 7.625 -1 7 C-1.625 4.625 -1.625 4.625 -2 2 C-1.34 1.34 -0.68 0.68 0 0 Z " fill="#B3302E" transform="translate(574,559)"/>
<path d="M0 0 C2.625 0.375 2.625 0.375 5 1 C5.625 3.375 5.625 3.375 6 6 C5.34 6.66 4.68 7.32 4 8 C1.375 7.625 1.375 7.625 -1 7 C-1.625 4.625 -1.625 4.625 -2 2 C-1.34 1.34 -0.68 0.68 0 0 Z " fill="#8E211D" transform="translate(494,541)"/>
<path d="M0 0 C2.625 0.375 2.625 0.375 5 1 C5.6875 2.8125 5.6875 2.8125 6 5 C4.8125 6.8125 4.8125 6.8125 3 8 C0.8125 7.6875 0.8125 7.6875 -1 7 C-1.625 4.625 -1.625 4.625 -2 2 C-1.34 1.34 -0.68 0.68 0 0 Z " fill="#8B201D" transform="translate(534,505)"/>
<path d="M0 0 C0.598125 0.20625 1.19625 0.4125 1.8125 0.625 C2.4375 3 2.4375 3 2.8125 5.625 C2.1525 6.285 1.4925 6.945 0.8125 7.625 C-1.8125 7.25 -1.8125 7.25 -4.1875 6.625 C-4.5175 4.975 -4.8475 3.325 -5.1875 1.625 C-2.1875 -0.375 -2.1875 -0.375 0 0 Z " fill="#8E201D" transform="translate(475.1875,484.375)"/>
<path d="M0 0 C2.5 0.125 2.5 0.125 3.5 1.125 C3.21269945 3.46444736 2.88063221 5.7989143 2.5 8.125 C-2.375 7.25 -2.375 7.25 -3.5 6.125 C-3.625 3.625 -3.625 3.625 -3.5 1.125 C-2.5 0.125 -2.5 0.125 0 0 Z " fill="#92211E" transform="translate(512.5,502.875)"/>
<path d="M0 0 C1.134375 0.020625 2.26875 0.04125 3.4375 0.0625 C3.4375 2.0425 3.4375 4.0225 3.4375 6.0625 C1.1275 6.3925 -1.1825 6.7225 -3.5625 7.0625 C-3.94383299 5.0710944 -4.27575582 3.06970923 -4.5625 1.0625 C-3.5625 0.0625 -3.5625 0.0625 0 0 Z " fill="#8E1D1D" transform="translate(428.5625,495.9375)"/>
<path d="M0 0 C2.31 0 4.62 0 7 0 C7.04254356 1.99954746 7.04080783 4.00041636 7 6 C6 7 6 7 2.9375 7.0625 C1.4834375 7.0315625 1.4834375 7.0315625 0 7 C0 4.69 0 2.38 0 0 Z " fill="#89201A" transform="translate(464,666)"/>
<path d="M0 0 C2.5 0.125 2.5 0.125 3.5 1.125 C3.6875 3.5625 3.6875 3.5625 3.5 6.125 C2.84 6.785 2.18 7.445 1.5 8.125 C-2.03571429 7.58928571 -2.03571429 7.58928571 -3.5 6.125 C-3.625 3.625 -3.625 3.625 -3.5 1.125 C-2.5 0.125 -2.5 0.125 0 0 Z " fill="#92211B" transform="translate(506.5,630.875)"/>
<path d="M0 0 C2.5 0.125 2.5 0.125 3.5 1.125 C3.6875 3.5625 3.6875 3.5625 3.5 6.125 C2.84 6.785 2.18 7.445 1.5 8.125 C-2.03571429 7.58928571 -2.03571429 7.58928571 -3.5 6.125 C-3.625 3.625 -3.625 3.625 -3.5 1.125 C-2.5 0.125 -2.5 0.125 0 0 Z " fill="#8A1E1D" transform="translate(480.5,556.875)"/>
<path d="M0 0 C1.98 0 3.96 0 6 0 C6.625 2.375 6.625 2.375 7 5 C6.34 5.66 5.68 6.32 5 7 C2.375 6.625 2.375 6.625 0 6 C-1.125 2.25 -1.125 2.25 0 0 Z " fill="#B1312E" transform="translate(588,643)"/>
<path d="M0 0 C1.67542976 0.28604898 3.34385343 0.61781233 5 1 C5.38218767 2.65614657 5.71395102 4.32457024 6 6 C5 7 5 7 2.5625 7.1875 C0 7 0 7 -2 5 C-1.46428571 1.46428571 -1.46428571 1.46428571 0 0 Z " fill="#93231D" transform="translate(528,642)"/>
<path d="M0 0 C2.625 0.375 2.625 0.375 5 1 C5.125 3.375 5.125 3.375 5 6 C4.34 6.66 3.68 7.32 3 8 C0.875 7.625 0.875 7.625 -1 7 C-1.625 4.625 -1.625 4.625 -2 2 C-1.34 1.34 -0.68 0.68 0 0 Z " fill="#94211F" transform="translate(551,604)"/>
<path d="M0 0 C3.69230769 0.69230769 3.69230769 0.69230769 5 2 C5.04063832 3.66617115 5.042721 5.33388095 5 7 C2.625 7.625 2.625 7.625 0 8 C-0.66 7.34 -1.32 6.68 -2 6 C-1.44444444 1.44444444 -1.44444444 1.44444444 0 0 Z " fill="#8D1F1D" transform="translate(528,520)"/>
<path d="M0 0 C2.5 0.125 2.5 0.125 3.5 1.125 C3.625 3.625 3.625 3.625 3.5 6.125 C2.5 7.125 2.5 7.125 0 7.25 C-2.5 7.125 -2.5 7.125 -3.5 6.125 C-3.625 3.625 -3.625 3.625 -3.5 1.125 C-2.5 0.125 -2.5 0.125 0 0 Z " fill="#B8322F" transform="translate(556.5,668.875)"/>
<path d="M0 0 C1.67542976 0.28604898 3.34385343 0.61781233 5 1 C5 2.65 5 4.3 5 6 C3.02 6.99 3.02 6.99 1 8 C0.01 7.34 -0.98 6.68 -2 6 C-1.125 1.125 -1.125 1.125 0 0 Z " fill="#901F1C" transform="translate(497,570)"/>
<path d="M0 0 C2.5 0.125 2.5 0.125 3.5 1.125 C3.54063832 2.79117115 3.542721 4.45888095 3.5 6.125 C-1.25 7.25 -1.25 7.25 -3.5 6.125 C-3.542721 4.45888095 -3.54063832 2.79117115 -3.5 1.125 C-2.5 0.125 -2.5 0.125 0 0 Z " fill="#8B1E1C" transform="translate(550.5,504.875)"/>
<path d="M0 0 C1.2065625 0.0309375 1.2065625 0.0309375 2.4375 0.0625 C3.0625 2.4375 3.0625 2.4375 3.4375 5.0625 C2.7775 5.7225 2.1175 6.3825 1.4375 7.0625 C-1.1875 6.6875 -1.1875 6.6875 -3.5625 6.0625 C-3.605221 4.39638095 -3.60313832 2.72867115 -3.5625 1.0625 C-2.5625 0.0625 -2.5625 0.0625 0 0 Z " fill="#8B1F1C" transform="translate(542.5625,624.9375)"/>
<path d="M0 0 C1 1 1 1 1.0625 3.5625 C1.041875 4.366875 1.02125 5.17125 1 6 C-0.99954746 6.04254356 -3.00041636 6.04080783 -5 6 C-6 5 -6 5 -6.0625 2.4375 C-6.041875 1.633125 -6.02125 0.82875 -6 0 C-3.49749232 -1.25125384 -2.59701335 -0.83774624 0 0 Z " fill="#881C1B" transform="translate(480,622)"/>
<path d="M0 0 C1.66611905 -0.042721 3.33382885 -0.04063832 5 0 C6 1 6 1 6.0625 3.5625 C6.041875 4.366875 6.02125 5.17125 6 6 C3.625 6.625 3.625 6.625 1 7 C0.34 6.34 -0.32 5.68 -1 5 C-0.625 2.375 -0.625 2.375 0 0 Z " fill="#B6312F" transform="translate(585,603)"/>
<path d="M0 0 C2.625 0.375 2.625 0.375 5 1 C5.042721 2.66611905 5.04063832 4.33382885 5 6 C4 7 4 7 1.4375 7.0625 C0.2309375 7.0315625 0.2309375 7.0315625 -1 7 C-1.625 4.625 -1.625 4.625 -2 2 C-1.34 1.34 -0.68 0.68 0 0 Z " fill="#93221C" transform="translate(533,591)"/>
<path d="M0 0 C1.67542976 0.28604898 3.34385343 0.61781233 5 1 C5.38218767 2.65614657 5.71395102 4.32457024 6 6 C5 7 5 7 2.5 7.125 C0 7 0 7 -1 6 C-1.125 3.5 -1.125 3.5 -1 1 C-0.67 0.67 -0.34 0.34 0 0 Z " fill="#911F1C" transform="translate(489,590)"/>
<path d="M0 0 C1.66611905 -0.042721 3.33382885 -0.04063832 5 0 C6 1 6 1 6.0625 3.5625 C6.041875 4.366875 6.02125 5.17125 6 6 C3.625 6.625 3.625 6.625 1 7 C0.34 6.34 -0.32 5.68 -1 5 C-0.625 2.375 -0.625 2.375 0 0 Z " fill="#D54645" transform="translate(469,547)"/>
<path d="M0 0 C2.0625 0.4375 2.0625 0.4375 4 1 C4.33 2.65 4.66 4.3 5 6 C3.35 6.66 1.7 7.32 0 8 C-0.66 7.34 -1.32 6.68 -2 6 C-1.44444444 1.44444444 -1.44444444 1.44444444 0 0 Z " fill="#911D1B" transform="translate(550,523)"/>
<path d="M0 0 C3.45925163 1.2491742 6.14693203 2.67527795 9 5 C5.5980513 7.09350689 2.94727588 7.17942163 -1 7 C-0.67 4.69 -0.34 2.38 0 0 Z " fill="#DBDBDB" transform="translate(478,338)"/>
<path d="M0 0 C1.66611905 -0.042721 3.33382885 -0.04063832 5 0 C6 1 6 1 6.0625 3.5625 C6.041875 4.366875 6.02125 5.17125 6 6 C3.625 6.625 3.625 6.625 1 7 C0.34 6.34 -0.32 5.68 -1 5 C-0.625 2.375 -0.625 2.375 0 0 Z " fill="#AA2D2D" transform="translate(549,653)"/>
<path d="M0 0 C1.2065625 0.0309375 1.2065625 0.0309375 2.4375 0.0625 C3.0625 2.4375 3.0625 2.4375 3.4375 5.0625 C2.7775 5.7225 2.1175 6.3825 1.4375 7.0625 C-1.1875 6.6875 -1.1875 6.6875 -3.5625 6.0625 C-3.605221 4.39638095 -3.60313832 2.72867115 -3.5625 1.0625 C-2.5625 0.0625 -2.5625 0.0625 0 0 Z " fill="#AD2D2D" transform="translate(571.5625,595.9375)"/>
<path d="M0 0 C-0.99 0 -1.98 0 -3 0 C-3 0.66 -3 1.32 -3 2 C-7.29 2.99 -11.58 3.98 -16 5 C-16.33 4.01 -16.66 3.02 -17 2 C-11.52376103 -0.00350206 -5.72409541 -2.06067435 0 0 Z " fill="#B8B7B5" transform="translate(485,316)"/>
<path d="M0 0 C1.67542976 0.28604898 3.34385343 0.61781233 5 1 C5 2.65 5 4.3 5 6 C2.625 6.625 2.625 6.625 0 7 C-0.66 6.34 -1.32 5.68 -2 5 C-1.46428571 1.46428571 -1.46428571 1.46428571 0 0 Z " fill="#AF2E2D" transform="translate(533,674)"/>
<path d="M0 0 C1.67542976 0.28604898 3.34385343 0.61781233 5 1 C5.625 2.875 5.625 2.875 6 5 C5.34 5.66 4.68 6.32 4 7 C1.375 6.625 1.375 6.625 -1 6 C-1.042721 4.33388095 -1.04063832 2.66617115 -1 1 C-0.67 0.67 -0.34 0.34 0 0 Z " fill="#8E211F" transform="translate(548,574)"/>
<path d="M0 0 C1.67542976 0.28604898 3.34385343 0.61781233 5 1 C5 2.65 5 4.3 5 6 C0.25 7.125 0.25 7.125 -2 6 C-1.125 1.125 -1.125 1.125 0 0 Z " fill="#92201D" transform="translate(526,569)"/>
<path d="M0 0 C1.67542976 0.28604898 3.34385343 0.61781233 5 1 C5 2.65 5 4.3 5 6 C2.625 6.625 2.625 6.625 0 7 C-0.66 6.34 -1.32 5.68 -2 5 C-1.46428571 1.46428571 -1.46428571 1.46428571 0 0 Z " fill="#91201D" transform="translate(541,551)"/>
<path d="M0 0 C1.67542976 0.28604898 3.34385343 0.61781233 5 1 C5.625 2.875 5.625 2.875 6 5 C5.34 5.66 4.68 6.32 4 7 C1.375 6.625 1.375 6.625 -1 6 C-1.042721 4.33388095 -1.04063832 2.66617115 -1 1 C-0.67 0.67 -0.34 0.34 0 0 Z " fill="#8C1F1E" transform="translate(515,535)"/>
<path d="M0 0 C1.67542976 0.28604898 3.34385343 0.61781233 5 1 C5.625 2.875 5.625 2.875 6 5 C5.34 5.66 4.68 6.32 4 7 C1.375 6.625 1.375 6.625 -1 6 C-1.042721 4.33388095 -1.04063832 2.66617115 -1 1 C-0.67 0.67 -0.34 0.34 0 0 Z " fill="#B6312F" transform="translate(579,504)"/>
<path d="M0 0 C1.2065625 0.0309375 1.2065625 0.0309375 2.4375 0.0625 C3.0625 2.4375 3.0625 2.4375 3.4375 5.0625 C2.7775 5.7225 2.1175 6.3825 1.4375 7.0625 C-0.6875 6.6875 -0.6875 6.6875 -2.5625 6.0625 C-2.94468767 4.40635343 -3.27645102 2.73792976 -3.5625 1.0625 C-2.5625 0.0625 -2.5625 0.0625 0 0 Z " fill="#95211F" transform="translate(500.5625,612.9375)"/>
<path d="M0 0 C2.97 0.495 2.97 0.495 6 1 C5.67 2.65 5.34 4.3 5 6 C3.125 6.625 3.125 6.625 1 7 C0.34 6.34 -0.32 5.68 -1 5 C-0.625 2.375 -0.625 2.375 0 0 Z " fill="#89211A" transform="translate(511,587)"/>
<path d="M0 0 C1.32 0.66 2.64 1.32 4 2 C4 3.32 4 4.64 4 6 C2.02 6.66 0.04 7.32 -2 8 C-2.6875 5.6875 -2.6875 5.6875 -3 3 C-1.5625 1.1875 -1.5625 1.1875 0 0 Z " fill="#96201E" transform="translate(489,517)"/>
<path d="M0 0 C1.67542976 0.28604898 3.34385343 0.61781233 5 1 C5.625 2.875 5.625 2.875 6 5 C5.34 5.66 4.68 6.32 4 7 C1.875 6.625 1.875 6.625 0 6 C-0.38218767 4.34385343 -0.71395102 2.67542976 -1 1 C-0.67 0.67 -0.34 0.34 0 0 Z " fill="#B02E2E" transform="translate(565,636)"/>
<path d="M0 0 C1.67542976 0.28604898 3.34385343 0.61781233 5 1 C5.042721 2.66611905 5.04063832 4.33382885 5 6 C4 7 4 7 1.4375 7.0625 C0.2309375 7.0315625 0.2309375 7.0315625 -1 7 C-1.04254356 5.00045254 -1.04080783 2.99958364 -1 1 C-0.67 0.67 -0.34 0.34 0 0 Z " fill="#B5322F" transform="translate(583,542)"/>
<path d="M0 0 C1.67542976 0.28604898 3.34385343 0.61781233 5 1 C5.625 2.875 5.625 2.875 6 5 C5.34 5.66 4.68 6.32 4 7 C1.875 6.625 1.875 6.625 0 6 C-0.38218767 4.34385343 -0.71395102 2.67542976 -1 1 C-0.67 0.67 -0.34 0.34 0 0 Z " fill="#AC2E2D" transform="translate(579,527)"/>
<path d="M0 0 C1.2065625 0.0309375 1.2065625 0.0309375 2.4375 0.0625 C2.81968767 1.71864657 3.15145102 3.38707024 3.4375 5.0625 C2.4375 6.0625 2.4375 6.0625 -0.125 6.125 C-1.3315625 6.0940625 -1.3315625 6.0940625 -2.5625 6.0625 C-2.94468767 4.40635343 -3.27645102 2.73792976 -3.5625 1.0625 C-2.5625 0.0625 -2.5625 0.0625 0 0 Z " fill="#AE2E2F" transform="translate(596.5625,564.9375)"/>
<path d="M0 0 C0 1.65 0 3.3 0 5 C-1.65614657 5.38218767 -3.32457024 5.71395102 -5 6 C-6 5 -6 5 -6.0625 2.4375 C-6.041875 1.633125 -6.02125 0.82875 -6 0 C-3.50907189 -1.24546405 -2.58919267 -0.7767578 0 0 Z " fill="#8E1F1D" transform="translate(503,492)"/>
<path d="M0 0 C1.32 0 2.64 0 4 0 C4 2.31 4 4.62 4 7 C2.35 6.67 0.7 6.34 -1 6 C-1.625 4.125 -1.625 4.125 -2 2 C-1.34 1.34 -0.68 0.68 0 0 Z " fill="#8C1D1D" transform="translate(428,624)"/>
<path d="M0 0 C-0.33 1.65 -0.66 3.3 -1 5 C-5.29 5 -9.58 5 -14 5 C-13 3 -13 3 -10.8203125 2.1484375 C-9.93085938 1.89320313 -9.04140625 1.63796875 -8.125 1.375 C-7.24070312 1.11460937 -6.35640625 0.85421875 -5.4453125 0.5859375 C-3 0 -3 0 0 0 Z " fill="#D7D6D5" transform="translate(477,319)"/>
<path d="M0 0 C1.65 0.33 3.3 0.66 5 1 C5 2.65 5 4.3 5 6 C3.125 6.625 3.125 6.625 1 7 C0.34 6.34 -0.32 5.68 -1 5 C-0.625 2.375 -0.625 2.375 0 0 Z " fill="#A92C2C" transform="translate(579,664)"/>
<path d="M0 0 C1.98 0 3.96 0 6 0 C6 1.98 6 3.96 6 6 C4.33388095 6.042721 2.66617115 6.04063832 1 6 C0 5 0 5 -0.0625 2.4375 C-0.041875 1.633125 -0.02125 0.82875 0 0 Z " fill="#D23D3E" transform="translate(531,536)"/>
<path d="M0 0 C0.99 0 1.98 0 3 0 C3 2.64 3 5.28 3 8 C1.68 7.67 0.36 7.34 -1 7 C-1.625 5.1875 -1.625 5.1875 -2 3 C-1.34 2.01 -0.68 1.02 0 0 Z " fill="#96211E" transform="translate(429,609)"/>
<path d="M0 0 C4.29 0.33 8.58 0.66 13 1 C13 1.66 13 2.32 13 3 C8.38 3 3.76 3 -1 3 C-0.67 2.01 -0.34 1.02 0 0 Z " fill="#373533" transform="translate(554,689)"/>
<path d="M0 0 C1.65 0.33 3.3 0.66 5 1 C4.67 2.65 4.34 4.3 4 6 C2.35 5.67 0.7 5.34 -1 5 C-0.67 3.35 -0.34 1.7 0 0 Z " fill="#B22E2E" transform="translate(579,623)"/>
<path d="M0 0 C0 2.31 0 4.62 0 7 C-1.32 7 -2.64 7 -4 7 C-4.33 5.02 -4.66 3.04 -5 1 C-3 0 -3 0 0 0 Z " fill="#8E1F1D" transform="translate(432,544)"/>
<path d="M0 0 C0 0.66 0 1.32 0 2 C-7.625 3.25 -7.625 3.25 -11 1 C-6.8204355 -1.78637633 -4.85331323 -0.79562512 0 0 Z " fill="#966662" transform="translate(464,691)"/>
<path d="M0 0 C1.63001953 0.01353516 1.63001953 0.01353516 3.29296875 0.02734375 C4.12441406 0.03894531 4.95585937 0.05054688 5.8125 0.0625 C2.87587384 2.02025078 1.2387944 2.62323149 -2.1875 3.0625 C-2.8475 2.7325 -3.5075 2.4025 -4.1875 2.0625 C-5.86404729 2.34192455 -7.53358154 2.67078247 -9.1875 3.0625 C-9.1875 2.4025 -9.1875 1.7425 -9.1875 1.0625 C-5.90230525 -0.03256492 -3.45086585 -0.03710608 0 0 Z " fill="#E4E5E3" transform="translate(491.1875,314.9375)"/>
<path d="M0 0 C0.99 0.33 1.98 0.66 3 1 C3 3.31 3 5.62 3 8 C2.01 7.67 1.02 7.34 0 7 C-1.125 2.25 -1.125 2.25 0 0 Z " fill="#9A2624" transform="translate(600,520)"/>
<path d="M0 0 C1.22589844 0.01353516 1.22589844 0.01353516 2.4765625 0.02734375 C3.41628906 0.04474609 3.41628906 0.04474609 4.375 0.0625 C4.375 0.3925 4.375 0.7225 4.375 1.0625 C1.735 1.0625 -0.905 1.0625 -3.625 1.0625 C-3.955 2.7125 -4.285 4.3625 -4.625 6.0625 C-5.615 5.7325 -6.605 5.4025 -7.625 5.0625 C-7.25 3.125 -7.25 3.125 -6.625 1.0625 C-4.21954362 -0.14022819 -2.67503047 -0.03821472 0 0 Z " fill="#4D4C4A" transform="translate(469.625,322.9375)"/>
<path d="M0 0 C-0.33 0.99 -0.66 1.98 -1 3 C-4.63 2.67 -8.26 2.34 -12 2 C-12 1.67 -12 1.34 -12 1 C-7.93631321 0.22596442 -4.13574827 -0.0984702 0 0 Z " fill="#3A4040" transform="translate(470,689)"/>
<path d="M0 0 C0 2.31 0 4.62 0 7 C-1.32 6.67 -2.64 6.34 -4 6 C-3.625 3.5625 -3.625 3.5625 -3 1 C-1 0 -1 0 0 0 Z " fill="#942423" transform="translate(432,571)"/>
<path d="M0 0 C-0.33 0.99 -0.66 1.98 -1 3 C-3.875 3.125 -3.875 3.125 -7 3 C-7.66 2.34 -8.32 1.68 -9 1 C-5.92677456 0.08941469 -3.19902639 -0.08886184 0 0 Z " fill="#883633" transform="translate(469,692)"/>
<path d="M0 0 C1.22589844 0.01353516 1.22589844 0.01353516 2.4765625 0.02734375 C3.41628906 0.04474609 3.41628906 0.04474609 4.375 0.0625 C4.375 0.3925 4.375 0.7225 4.375 1.0625 C3.73691406 1.18367188 3.09882813 1.30484375 2.44140625 1.4296875 C1.20197266 1.68105469 1.20197266 1.68105469 -0.0625 1.9375 C-0.88621094 2.09992188 -1.70992188 2.26234375 -2.55859375 2.4296875 C-3.24050781 2.63851563 -3.92242187 2.84734375 -4.625 3.0625 C-4.955 3.7225 -5.285 4.3825 -5.625 5.0625 C-6.285 5.0625 -6.945 5.0625 -7.625 5.0625 C-7.25 3.125 -7.25 3.125 -6.625 1.0625 C-4.21954362 -0.14022819 -2.67503047 -0.03821472 0 0 Z " fill="#555553" transform="translate(487.625,333.9375)"/>
<path d="M0 0 C0.33 0.99 0.66 1.98 1 3 C0.34 3.66 -0.32 4.32 -1 5 C-1 5.99 -1 6.98 -1 8 C-1.99 7.34 -2.98 6.68 -4 6 C-2.84826645 3.53199953 -1.95216435 1.95216435 0 0 Z " fill="#B1AFA8" transform="translate(598,429)"/>
</svg>
